<?xml version="1.0" encoding="utf-8"?>
<!-- Generator: Adobe Illustrator 16.0.0, SVG Export Plug-In . SVG Version: 6.00 Build 0)  -->
<!DOCTYPE svg PUBLIC "-//W3C//DTD SVG 1.1//EN" "http://www.w3.org/Graphics/SVG/1.1/DTD/svg11.dtd">
<svg version="1.1" id="Layer_1" xmlns="http://www.w3.org/2000/svg" xmlns:xlink="http://www.w3.org/1999/xlink" x="0px" y="0px"
	 width="16px" height="16px" viewBox="0 0 16 16" enable-background="new 0 0 16 16" xml:space="preserve">
<path d="M2.352,15.55c-0.226,0-0.408-0.183-0.408-0.408V0.858c0-0.226,0.183-0.409,0.408-0.409h7.936
	c0.109,0,0.211,0.042,0.289,0.12l3.644,3.645c0.078,0.077,0.122,0.185,0.12,0.295c-0.001,0.11-0.05,0.216-0.13,0.292l-2.985,2.791
	l3.722,3.764c0.157,0.16,0.157,0.418-0.002,0.576l-3.498,3.499c-0.078,0.079-0.181,0.12-0.289,0.12H2.352z M10.989,14.733
	l3.092-3.092l-3.453-3.492L9.913,8.818l2.508,2.536c0.158,0.16,0.157,0.418,0,0.576l-2.802,2.802H10.989z M8.463,14.733l3.092-3.092
	L9.316,9.376l-4.028,3.768v1.589H8.463z M4.47,14.733v-3.188l-1.709,1.599v1.589H4.47z M5.288,12.025l3.453-3.23L8.103,8.149
	l-2.815,2.632V12.025z M2.761,12.025l1.709-1.599v-9.16H2.761V12.025z M5.288,9.663l5.53-5.17L7.592,1.266H5.288V9.663z
	 M9.339,8.238l4.005-3.745l-3.226-3.227h-1.37l2.946,2.948c0.078,0.077,0.122,0.185,0.12,0.295c-0.001,0.11-0.049,0.216-0.128,0.292
	L8.7,7.591L9.339,8.238z"/>
</svg>
