<?xml version="1.0" encoding="utf-8"?>
<!-- Generator: Adobe Illustrator 16.0.0, SVG Export Plug-In . SVG Version: 6.00 Build 0)  -->
<!DOCTYPE svg PUBLIC "-//W3C//DTD SVG 1.1//EN" "http://www.w3.org/Graphics/SVG/1.1/DTD/svg11.dtd">
<svg version="1.1" id="Layer_1" xmlns="http://www.w3.org/2000/svg" xmlns:xlink="http://www.w3.org/1999/xlink" x="0px" y="0px"
	 width="300px" height="300px" viewBox="0 0 300 300" enable-background="new 0 0 300 300" xml:space="preserve">
<circle fill="#040303" cx="150" cy="149.534" r="148.211"/>
<path fill="#FFFFFF" d="M94.666,228.094c-2.359,0-4.278-1.919-4.278-4.278V74.33c0-2.359,1.919-4.277,4.278-4.277h83.05
	c1.145,0,2.22,0.446,3.027,1.255l38.138,38.138c0.815,0.812,1.272,1.941,1.253,3.098c-0.021,1.153-0.516,2.265-1.356,3.05
	l-31.24,29.208l38.951,39.389c1.649,1.668,1.641,4.374-0.017,6.032l-36.617,36.619c-0.81,0.809-1.883,1.253-3.024,1.253H94.666z
	 M185.057,219.54l32.358-32.358l-36.129-36.534l-7.488,7l26.249,26.544c1.648,1.667,1.642,4.373-0.016,6.03l-29.317,29.318H185.057z
	 M158.617,219.54l32.358-32.358l-23.427-23.69l-42.164,39.422v16.626H158.617z M116.829,219.54V186.19l-17.886,16.723v16.626
	H116.829z M125.383,191.202l36.147-33.795l-6.685-6.761l-29.462,27.546V191.202z M98.942,191.202l17.886-16.724V78.607H98.942
	V191.202z M125.383,166.48l57.881-54.114l-33.76-33.758h-24.121V166.48z M167.781,151.562l41.924-39.196l-33.762-33.758h-14.342
	l30.837,30.838c0.814,0.811,1.272,1.94,1.254,3.095c-0.022,1.158-0.516,2.269-1.356,3.053l-31.241,29.208L167.781,151.562z"/>
</svg>
