<?xml version="1.0" encoding="utf-8"?>
<!-- Generator: Adobe Illustrator 16.0.0, SVG Export Plug-In . SVG Version: 6.00 Build 0)  -->
<!DOCTYPE svg PUBLIC "-//W3C//DTD SVG 1.1//EN" "http://www.w3.org/Graphics/SVG/1.1/DTD/svg11.dtd">
<svg version="1.1" id="Layer_1" xmlns="http://www.w3.org/2000/svg" xmlns:xlink="http://www.w3.org/1999/xlink" x="0px" y="0px"
	 width="16px" height="16px" viewBox="0 0 16 16" enable-background="new 0 0 16 16" xml:space="preserve">
<path fill="#FFFFFF" d="M3.482,13.805c-0.174,0-0.315-0.142-0.315-0.315V2.471c0-0.174,0.141-0.315,0.315-0.315h6.122
	c0.084,0,0.164,0.032,0.223,0.093l2.811,2.811c0.06,0.059,0.094,0.143,0.093,0.228c-0.001,0.085-0.039,0.167-0.1,0.225l-2.303,2.153
	l2.871,2.904c0.121,0.123,0.121,0.322-0.001,0.444L10.5,13.712c-0.06,0.061-0.139,0.093-0.223,0.093H3.482z M10.146,13.175
	l2.386-2.385L9.868,8.096L9.315,8.612l1.935,1.957c0.122,0.123,0.121,0.322,0,0.444l-2.161,2.162H10.146z M8.197,13.175l2.385-2.385
	L8.854,9.042l-3.107,2.907v1.226H8.197z M5.116,13.175v-2.459l-1.318,1.233v1.226H5.116z M5.747,11.086l2.664-2.492L7.919,8.096
	l-2.172,2.031V11.086z M3.797,11.086l1.318-1.233V2.786H3.797V11.086z M5.747,9.263l4.267-3.989L7.524,2.786H5.747V9.263z
	 M8.872,8.164l3.09-2.889L9.474,2.786H8.417l2.273,2.273c0.06,0.059,0.094,0.143,0.092,0.228c-0.001,0.085-0.038,0.167-0.099,0.225
	L8.38,7.665L8.872,8.164z"/>
</svg>
