<?xml version="1.0" encoding="utf-8"?>
<!-- Generator: Adobe Illustrator 16.0.0, SVG Export Plug-In . SVG Version: 6.00 Build 0)  -->
<!DOCTYPE svg PUBLIC "-//W3C//DTD SVG 1.1//EN" "http://www.w3.org/Graphics/SVG/1.1/DTD/svg11.dtd">
<svg version="1.1" id="Layer_1" xmlns="http://www.w3.org/2000/svg" xmlns:xlink="http://www.w3.org/1999/xlink" x="0px" y="0px"
	 width="300px" height="300px" viewBox="0 0 300 300" enable-background="new 0 0 300 300" xml:space="preserve">
<circle fill="#040303" cx="1369.248" cy="336.166" r="214.389"/>
<g>
	<path fill="#FFFFFF" d="M1257.027,303.129c-3.744,0-6.791-3.046-6.791-6.79s3.047-6.79,6.791-6.79h143.919
		c16.229,0,29.433-11.887,29.433-26.497c0-14.858-12.929-26.497-29.433-26.497c-16.23,0-29.435,11.887-29.435,26.497
		c0,3.744-3.046,6.79-6.789,6.79c-3.745,0-6.792-3.046-6.792-6.79c0-21.829,19.077-39.588,42.525-39.588
		c23.449,0,42.526,17.759,42.526,39.588c0,22.099-18.857,40.077-42.036,40.077H1257.027z"/>
	<path fill="#FFFFFF" d="M1400.946,447.536c-3.744,0-6.79-3.046-6.79-6.789c0-3.744,3.046-6.791,6.79-6.791
		c16.229,0,29.433-11.886,29.433-26.496c0-14.858-12.929-26.498-29.433-26.498h-143.919c-3.744,0-6.791-3.047-6.791-6.791
		c0-3.743,3.047-6.788,6.791-6.788h143.919c23.448,0,42.524,17.759,42.524,39.587
		C1443.471,428.959,1423.997,447.536,1400.946,447.536z"/>
	<path fill="#FFFFFF" d="M1257.027,343.76c-3.744,0-6.791-3.047-6.791-6.791s3.047-6.791,6.791-6.791h190.912
		c15.15,0,27.477-10.129,27.477-22.58c0-3.744,3.046-6.791,6.789-6.791c3.744,0,6.791,3.047,6.791,6.791
		c0,20.277-18.034,36.162-41.057,36.162H1257.027z"/>
</g>
<circle fill="#040303" cx="1925.72" cy="336.166" r="214.389"/>
<g>
	<path fill="#FFFFFF" d="M2038.398,388.343c-30.29-31.484-58.801-67.331-71.122-86.142c-7.639-11.667-16.53-22.104-27.926-22.105
		c-6.974,0-14.89,3.91-24.034,13.841c0,0-11.173,7.232-24.637,7.232c-14.013,0-30.494-7.883-39.464-39.858
		c4.559-23.708-3.008-39.649-13.907-39.649c-2.114,0-4.354,0.599-6.651,1.858c-7.833,4.286-13.876,17.704-3.06,25.877
		c4.188,3.164,5.162,8.745,5.14,13.384c-0.442,0.436-0.885,0.878-1.334,1.38c-10.9,12.199-34.284,30.373-34.284,64.99
		c0,14.283,3.496,36.466,57.866,36.466c13.455,0.418,31.367,4.321,57.314,16.968c60.544,29.517,63.621,46.365,134.147,58.732
		C2046.448,441.315,2068.689,419.831,2038.398,388.343z M1890.68,310.49c15.762,0,28.321-7.838,29.702-8.73l0.989-0.641l0.803-0.869
		c6.524-7.089,12.466-10.833,17.177-10.833c2.038,0,4.071,0.761,6.058,1.999l-19.349,18.875c-5.481,5.285-5.643,14.012-0.358,19.496
		c5.28,5.481,14.006,5.644,19.494,0.356l17.919-17.479c14.044,20.226,40.552,53.024,68.57,82.142
		c2.717,2.825,4.864,5.499,6.646,8.059l-0.181-0.054c-9.319,10.095-49.727-19.931-82.441-38.663
		c-39.944-22.872-88.427-16.483-88.427-16.483c-9.356-2.242-30.242-69.384-31.749-74.253c0.989-1.034,1.935-2.048,2.821-3.04
		c1.996-2.231,3.661-3.266,4.739-3.549C1854.135,302.773,1874.901,310.49,1890.68,310.49z M1831.074,237.998
		c0.188-2.544,2.248-5.314,4.058-6.305c0.84-0.46,1.612-0.711,2.177-0.711c0.69,0,1.45,0.536,2.263,1.596
		c3.013,3.928,4.769,12.646,2.966,24.383c-0.303,0.002-0.604,0.01-0.899,0.021c-0.856-5.396-3.158-11.048-8.421-15.023
		C1831.186,240.426,1830.994,239.098,1831.074,237.998z"/>
	<path fill="#231F20" d="M1823.073,288.934c0,0-18.117,25.624,3.795,50.77c10.806,10.024,17.563,8.304,17.563,8.304
		S1825.132,312.09,1823.073,288.934z"/>
</g>
<circle fill="#040303" cx="150" cy="150" r="148.825"/>
<g>
	<path fill="#FFFFFF" d="M145.811,205.439c-23.185,0-42.047-18.861-42.047-42.046c0-2.452-1.995-4.446-4.447-4.446
		c-2.452,0-4.447,1.994-4.447,4.446c0,28.089,22.852,50.941,50.94,50.941c2.453,0,4.446-1.995,4.446-4.447
		S148.262,205.439,145.811,205.439z"/>
	<path fill="#FFFFFF" d="M225.778,144.07h-14.151v-16.011c0-2.452-1.995-4.446-4.447-4.446H84.439c-2.453,0-4.447,1.994-4.447,4.446
		v35.334c0,23.57,12.509,45.127,32.834,56.924H95.598c-2.452,0-4.447,1.995-4.447,4.447c0,2.451,1.995,4.446,4.447,4.446h98.937
		c2.452,0,4.446-1.995,4.446-4.446c0-2.452-1.995-4.447-4.446-4.447h-15.743c15.509-9.008,26.694-23.902,30.949-41.319h16.037
		c9.63,0,17.464-7.834,17.464-17.464C243.243,151.904,235.408,144.07,225.778,144.07z M225.778,170.105h-14.505
		c0.235-2.289,0.354-4.542,0.354-6.712v-10.43h14.151c4.727,0,8.572,3.845,8.572,8.571S230.505,170.105,225.778,170.105z
		 M145.811,220.317c-31.389,0-56.924-25.536-56.924-56.924v-10.43h113.848v10.43C202.734,194.781,177.198,220.317,145.811,220.317z
		 M202.734,132.505v11.564H88.886v-11.564H202.734z"/>
	<path fill="#FFFFFF" d="M146.386,106.318c-0.84,0.839-1.303,1.956-1.303,3.144c0,1.188,0.463,2.304,1.303,3.144
		c0.839,0.84,1.956,1.303,3.143,1.303c1.188,0,2.304-0.463,3.144-1.303c9.631-9.629,5.271-22.675,1.421-34.194
		c-3.591-10.731-5.479-17.539-1.421-21.598c1.732-1.733,1.732-4.554,0-6.288c-0.84-0.839-1.957-1.302-3.144-1.302
		c-1.187,0-2.303,0.462-3.143,1.302c-8.239,8.238-4.42,19.658-0.726,30.707C148.986,91.179,152.127,100.576,146.386,106.318z"/>
	<path fill="#FFFFFF" d="M124.069,97.02c-0.84,0.839-1.303,1.956-1.303,3.144c0,1.188,0.463,2.304,1.303,3.143
		c0.839,0.841,1.956,1.304,3.144,1.304c1.188,0,2.305-0.463,3.143-1.303c5.596-5.598,3.545-12.439,2.046-17.439
		c-1.546-5.15-1.773-7.008-0.186-8.596c1.733-1.733,1.733-4.554,0-6.288c-0.839-0.84-1.956-1.302-3.143-1.302
		c-1.188,0-2.304,0.462-3.144,1.302c-5.596,5.594-3.546,12.435-2.047,17.44C125.43,93.573,125.658,95.43,124.069,97.02z"/>
	<path fill="#FFFFFF" d="M168.702,97.02c-0.84,0.839-1.302,1.956-1.302,3.144c0,1.188,0.462,2.304,1.302,3.144
		c0.839,0.84,1.957,1.303,3.144,1.303c1.188,0,2.304-0.463,3.144-1.303c5.596-5.599,3.545-12.44,2.046-17.439
		c-1.547-5.15-1.774-7.007-0.186-8.596c0.84-0.841,1.303-1.957,1.303-3.145c0-1.187-0.462-2.303-1.303-3.143
		c-0.84-0.84-1.957-1.302-3.144-1.302s-2.304,0.462-3.143,1.302c-5.596,5.595-3.545,12.438-2.046,17.44
		C170.063,93.572,170.292,95.429,168.702,97.02z"/>
</g>
</svg>
