<?xml version="1.0" encoding="utf-8"?>
<!-- Generator: Adobe Illustrator 16.0.0, SVG Export Plug-In . SVG Version: 6.00 Build 0)  -->
<!DOCTYPE svg PUBLIC "-//W3C//DTD SVG 1.1//EN" "http://www.w3.org/Graphics/SVG/1.1/DTD/svg11.dtd">
<svg version="1.1" id="Layer_1" xmlns="http://www.w3.org/2000/svg" xmlns:xlink="http://www.w3.org/1999/xlink" x="0px" y="0px"
	 width="300px" height="300px" viewBox="0 0 300 300" enable-background="new 0 0 300 300" xml:space="preserve">
<circle fill="#040303" cx="1369.248" cy="336.166" r="214.389"/>
<g>
	<path fill="#FFFFFF" d="M1257.027,303.129c-3.744,0-6.791-3.046-6.791-6.79s3.047-6.79,6.791-6.79h143.919
		c16.229,0,29.433-11.887,29.433-26.497c0-14.858-12.929-26.497-29.433-26.497c-16.23,0-29.435,11.887-29.435,26.497
		c0,3.744-3.046,6.79-6.789,6.79c-3.745,0-6.792-3.046-6.792-6.79c0-21.829,19.077-39.588,42.525-39.588
		c23.449,0,42.526,17.759,42.526,39.588c0,22.099-18.857,40.077-42.036,40.077H1257.027z"/>
	<path fill="#FFFFFF" d="M1400.946,447.536c-3.744,0-6.79-3.046-6.79-6.789c0-3.744,3.046-6.791,6.79-6.791
		c16.229,0,29.433-11.886,29.433-26.496c0-14.858-12.929-26.498-29.433-26.498h-143.919c-3.744,0-6.791-3.047-6.791-6.791
		c0-3.743,3.047-6.788,6.791-6.788h143.919c23.448,0,42.524,17.759,42.524,39.587
		C1443.471,428.959,1423.997,447.536,1400.946,447.536z"/>
	<path fill="#FFFFFF" d="M1257.027,343.76c-3.744,0-6.791-3.047-6.791-6.791s3.047-6.791,6.791-6.791h190.912
		c15.15,0,27.477-10.129,27.477-22.58c0-3.744,3.046-6.791,6.789-6.791c3.744,0,6.791,3.047,6.791,6.791
		c0,20.277-18.034,36.162-41.057,36.162H1257.027z"/>
</g>
<circle fill="#040303" cx="150.256" cy="150" r="149.107"/>
<g>
	<path fill="#FFFFFF" d="M71.951,127.915c-2.604,0-4.723-2.118-4.723-4.722s2.119-4.723,4.723-4.723h100.095
		c11.288,0,20.471-8.267,20.471-18.429c0-10.334-8.992-18.429-20.471-18.429c-11.288,0-20.472,8.267-20.472,18.429
		c0,2.604-2.118,4.723-4.722,4.723c-2.604,0-4.724-2.119-4.724-4.723c0-15.182,13.268-27.533,29.576-27.533
		c16.309,0,29.577,12.351,29.577,27.533c0,15.37-13.115,27.874-29.236,27.874H71.951z"/>
	<path fill="#FFFFFF" d="M172.046,228.351c-2.604,0-4.722-2.119-4.722-4.722c0-2.604,2.118-4.723,4.722-4.723
		c11.288,0,20.471-8.267,20.471-18.428c0-10.334-8.992-18.429-20.471-18.429H71.951c-2.604,0-4.723-2.119-4.723-4.723
		c0-2.604,2.119-4.721,4.723-4.721h100.095c16.309,0,29.576,12.351,29.576,27.533C201.622,215.43,188.078,228.351,172.046,228.351z"
		/>
	<path fill="#FFFFFF" d="M71.951,156.174c-2.604,0-4.723-2.119-4.723-4.723s2.119-4.723,4.723-4.723H204.73
		c10.537,0,19.11-7.044,19.11-15.704c0-2.604,2.119-4.723,4.722-4.723c2.604,0,4.723,2.119,4.723,4.723
		c0,14.103-12.542,25.15-28.555,25.15H71.951z"/>
</g>
</svg>
