<?xml version="1.0" encoding="utf-8"?>
<!-- Generator: Adobe Illustrator 16.0.0, SVG Export Plug-In . SVG Version: 6.00 Build 0)  -->
<!DOCTYPE svg PUBLIC "-//W3C//DTD SVG 1.1//EN" "http://www.w3.org/Graphics/SVG/1.1/DTD/svg11.dtd">
<svg version="1.1" id="Layer_1" xmlns="http://www.w3.org/2000/svg" xmlns:xlink="http://www.w3.org/1999/xlink" x="0px" y="0px"
	 width="300px" height="300px" viewBox="0 0 300 300" enable-background="new 0 0 300 300" xml:space="preserve">
<circle fill="#040303" cx="1369.248" cy="336.166" r="214.389"/>
<g>
	<path fill="#FFFFFF" d="M1257.027,303.129c-3.744,0-6.791-3.046-6.791-6.79s3.047-6.79,6.791-6.79h143.919
		c16.229,0,29.433-11.887,29.433-26.497c0-14.858-12.929-26.497-29.433-26.497c-16.23,0-29.435,11.887-29.435,26.497
		c0,3.744-3.046,6.79-6.789,6.79c-3.745,0-6.792-3.046-6.792-6.79c0-21.829,19.077-39.588,42.525-39.588
		c23.449,0,42.526,17.759,42.526,39.588c0,22.099-18.857,40.077-42.036,40.077H1257.027z"/>
	<path fill="#FFFFFF" d="M1400.946,447.536c-3.744,0-6.79-3.046-6.79-6.789c0-3.744,3.046-6.791,6.79-6.791
		c16.229,0,29.433-11.886,29.433-26.496c0-14.858-12.929-26.498-29.433-26.498h-143.919c-3.744,0-6.791-3.047-6.791-6.791
		c0-3.743,3.047-6.788,6.791-6.788h143.919c23.448,0,42.524,17.759,42.524,39.587
		C1443.471,428.959,1423.997,447.536,1400.946,447.536z"/>
	<path fill="#FFFFFF" d="M1257.027,343.76c-3.744,0-6.791-3.047-6.791-6.791s3.047-6.791,6.791-6.791h190.912
		c15.15,0,27.477-10.129,27.477-22.58c0-3.744,3.046-6.791,6.789-6.791c3.744,0,6.791,3.047,6.791,6.791
		c0,20.277-18.034,36.162-41.057,36.162H1257.027z"/>
</g>
<circle fill="#040303" cx="1925.72" cy="336.166" r="214.389"/>
<g>
	<path fill="#FFFFFF" d="M2038.398,388.343c-30.29-31.484-58.801-67.331-71.122-86.142c-7.639-11.667-16.53-22.104-27.926-22.105
		c-6.974,0-14.89,3.91-24.034,13.841c0,0-11.173,7.232-24.637,7.232c-14.013,0-30.494-7.883-39.464-39.858
		c4.559-23.708-3.008-39.649-13.907-39.649c-2.114,0-4.354,0.599-6.651,1.858c-7.833,4.286-13.876,17.704-3.06,25.877
		c4.188,3.164,5.162,8.745,5.14,13.384c-0.442,0.436-0.885,0.878-1.334,1.38c-10.9,12.199-34.284,30.373-34.284,64.99
		c0,14.283,3.496,36.466,57.866,36.466c13.455,0.418,31.367,4.321,57.314,16.968c60.544,29.517,63.621,46.365,134.147,58.732
		C2046.448,441.315,2068.689,419.831,2038.398,388.343z M1890.68,310.49c15.762,0,28.321-7.838,29.702-8.73l0.989-0.641l0.803-0.869
		c6.524-7.089,12.466-10.833,17.177-10.833c2.038,0,4.071,0.761,6.058,1.999l-19.349,18.875c-5.481,5.285-5.643,14.012-0.358,19.496
		c5.28,5.481,14.006,5.644,19.494,0.356l17.919-17.479c14.044,20.226,40.552,53.024,68.57,82.142
		c2.717,2.825,4.864,5.499,6.646,8.059l-0.181-0.054c-9.319,10.095-49.727-19.931-82.441-38.663
		c-39.944-22.872-88.427-16.483-88.427-16.483c-9.356-2.242-30.242-69.384-31.749-74.253c0.989-1.034,1.935-2.048,2.821-3.04
		c1.996-2.231,3.661-3.266,4.739-3.549C1854.135,302.773,1874.901,310.49,1890.68,310.49z M1831.074,237.998
		c0.188-2.544,2.248-5.314,4.058-6.305c0.84-0.46,1.612-0.711,2.177-0.711c0.69,0,1.45,0.536,2.263,1.596
		c3.013,3.928,4.769,12.646,2.966,24.383c-0.303,0.002-0.604,0.01-0.899,0.021c-0.856-5.396-3.158-11.048-8.421-15.023
		C1831.186,240.426,1830.994,239.098,1831.074,237.998z"/>
	<path fill="#231F20" d="M1823.073,288.934c0,0-18.117,25.624,3.795,50.77c10.806,10.024,17.563,8.304,17.563,8.304
		S1825.132,312.09,1823.073,288.934z"/>
</g>
<circle fill="#040303" cx="150" cy="150" r="149.021"/>
<path fill="#FFFFFF" d="M146.112,168.44h7.727c1.031,0,1.863-0.833,1.863-1.864v-8.62c0-3.157-2.57-5.727-5.726-5.727
	c-3.158,0-5.728,2.57-5.728,5.727v8.62C144.249,167.606,145.084,168.44,146.112,168.44z"/>
<path fill="#FFFFFF" d="M146.112,142.5h7.727c1.031,0,1.863-0.833,1.863-1.864v-8.619c0-3.158-2.57-5.727-5.726-5.727
	c-3.158,0-5.728,2.569-5.728,5.727v8.619C144.249,141.667,145.084,142.5,146.112,142.5z"/>
<path fill="#FFFFFF" d="M146.112,116.437h7.727c1.031,0,1.863-0.833,1.863-1.863v-8.619c0-3.159-2.57-5.729-5.726-5.729
	c-3.158,0-5.728,2.569-5.728,5.729v8.619C144.249,115.603,145.084,116.437,146.112,116.437z"/>
<path fill="#FFFFFF" d="M127.509,152.229c-3.159,0-5.729,2.57-5.729,5.727v8.62c0,1.03,0.834,1.864,1.863,1.864h7.729
	c1.031,0,1.864-0.833,1.864-1.864v-8.62C133.236,154.799,130.665,152.229,127.509,152.229z"/>
<path fill="#FFFFFF" d="M127.509,126.291c-3.159,0-5.729,2.569-5.729,5.727v8.619c0,1.031,0.834,1.864,1.863,1.864h7.729
	c1.031,0,1.864-0.833,1.864-1.864v-8.619C133.236,128.86,130.665,126.291,127.509,126.291z"/>
<path fill="#FFFFFF" d="M127.509,100.227c-3.159,0-5.729,2.569-5.729,5.729v8.619c0,1.029,0.834,1.863,1.863,1.863h7.729
	c1.031,0,1.864-0.833,1.864-1.863v-8.619C133.236,102.796,130.665,100.227,127.509,100.227z"/>
<path fill="#FFFFFF" d="M105.04,152.229c-3.156,0-5.727,2.57-5.727,5.727v8.621c0,1.031,0.834,1.863,1.864,1.863h7.726
	c1.031,0,1.864-0.833,1.864-1.863v-8.621C110.767,154.797,108.198,152.229,105.04,152.229z"/>
<path fill="#FFFFFF" d="M105.04,126.291c-3.156,0-5.727,2.569-5.727,5.727v8.619c0,1.031,0.834,1.864,1.864,1.864h7.726
	c1.031,0,1.864-0.833,1.864-1.864v-8.619C110.767,128.86,108.198,126.291,105.04,126.291z"/>
<path fill="#FFFFFF" d="M105.04,100.227c-3.156,0-5.727,2.569-5.727,5.729v8.619c0,1.03,0.834,1.863,1.864,1.863h7.726
	c1.031,0,1.864-0.833,1.864-1.863v-8.619C110.767,102.794,108.198,100.227,105.04,100.227z"/>
<path fill="#FFFFFF" d="M234.991,219.853h-12.278l0.021-8.283c7.235-1.724,12.522-7.999,12.522-15.146
	c0-2.849-0.812-5.611-2.353-8.042c0.319-1.141,0.479-2.324,0.479-3.526c0-2.503-0.703-4.93-2.042-7.071
	c0.219-0.899,0.33-1.825,0.33-2.761c0-6.788-5.812-12.311-12.956-12.311c-0.824,0-1.641,0.074-2.448,0.223
	c0.182-0.904,0.274-1.826,0.274-2.755c0-8.199-7.048-14.869-15.713-14.869c-8.377,0-15.272,6.198-15.696,14.12
	c-0.012,0.248-0.018,0.498-0.018,0.749c0,1.297,0.18,2.582,0.535,3.832c-1.82,2.713-2.778,5.822-2.778,9.045
	c0,1.638,0.251,3.255,0.747,4.82c-2.095,3.086-3.199,6.646-3.199,10.333c0,9.148,6.898,16.99,16.281,18.812l-0.032,12.831h-24.49
	V88.786c2.025-0.231,3.602-1.956,3.602-4.041V69.117c0-2.242-1.825-4.067-4.067-4.067H131.08v-0.072h-8.134v0.072H81.228
	c-2.243,0-4.067,1.825-4.067,4.067v15.628c0,2.174,1.713,3.955,3.861,4.062v131.046h-4.61c-2.241,0-4.066,1.824-4.066,4.066
	c0,2.244,1.825,4.068,4.066,4.068h158.578c2.243,0,4.067-1.825,4.067-4.068C239.058,221.677,237.234,219.853,234.991,219.853z
	 M190.528,182.178c0.229-0.313,0.48-0.625,0.764-0.944c1.11-1.241,1.349-3.069,0.595-4.548c-0.587-1.164-0.887-2.385-0.887-3.629
	c0-2.033,0.799-4.021,2.255-5.599c1.134-1.236,1.392-3.072,0.644-4.563c-0.435-0.876-0.655-1.79-0.656-2.666l0.011-0.378
	c0.192-3.593,3.518-6.407,7.573-6.407c4.179,0,7.578,3.021,7.578,6.734c0,0.931-0.219,1.842-0.65,2.708
	c-0.751,1.499-0.494,3.336,0.643,4.575c1.452,1.575,2.251,3.562,2.251,5.596c0,1.249-0.298,2.469-0.886,3.627
	c-0.753,1.485-0.513,3.315,0.6,4.558c1.79,1.992,2.736,4.401,2.736,6.968c0,6.113-5.506,11.088-12.273,11.088
	c-6.769,0-12.276-4.975-12.276-11.088C188.549,186.058,189.235,183.971,190.528,182.178z M218.6,170.847
	c0.039-0.001,0.077-0.002,0.115-0.002c2.659,0,4.823,1.874,4.823,4.177c0,0.559-0.134,1.113-0.397,1.64
	c-0.75,1.5-0.491,3.337,0.644,4.569c0.945,1.029,1.465,2.316,1.465,3.625c0,0.803-0.191,1.585-0.569,2.325
	c-0.77,1.508-0.537,3.298,0.597,4.563c1.205,1.341,1.843,2.96,1.843,4.68c0,4.134-3.771,7.499-8.407,7.499
	c-1.61,0-3.18-0.424-4.521-1.195c4.447-3.634,7.042-8.909,7.042-14.518c0-3.688-1.104-7.241-3.199-10.331
	c0.495-1.56,0.747-3.177,0.747-4.82C218.78,172.346,218.721,171.611,218.6,170.847z M204.833,207.045
	c0.489-0.093,0.976-0.203,1.459-0.331c2.199,2.374,5.08,4.047,8.305,4.829l-0.018,8.31h-9.775L204.833,207.045z M126.764,178.787
	c-7.804,0-14.154,6.348-14.154,14.151v26.915H89.157V88.812h74.887v131.041h-23.129v-26.915
	C140.915,185.134,134.567,178.787,126.764,178.787z M120.745,192.938c0-3.318,2.7-6.017,6.019-6.017
	c3.318,0,6.017,2.699,6.017,6.017v26.915h-12.036V192.938z M85.294,80.678v-7.494h82.35v7.494H85.294z"/>
</svg>
