<?xml version="1.0" encoding="UTF-8" standalone="no"?>
<!-- Generator: Adobe Illustrator 16.0.0, SVG Export Plug-In . SVG Version: 6.00 Build 0)  -->

<svg
   xmlns:dc="http://purl.org/dc/elements/1.1/"
   xmlns:cc="http://creativecommons.org/ns#"
   xmlns:rdf="http://www.w3.org/1999/02/22-rdf-syntax-ns#"
   xmlns:svg="http://www.w3.org/2000/svg"
   xmlns="http://www.w3.org/2000/svg"
   xmlns:sodipodi="http://sodipodi.sourceforge.net/DTD/sodipodi-0.dtd"
   xmlns:inkscape="http://www.inkscape.org/namespaces/inkscape"
   version="1.1"
   id="Layer_1"
   inkscape:version="0.91 r13725"
   sodipodi:docname="Logo_102x18_white2.svg"
   x="0px"
   y="0px"
   width="102px"
   height="18px"
   viewBox="0 0 102 18"
   enable-background="new 0 0 102 18"
   xml:space="preserve"><metadata
     id="metadata3427"><rdf:RDF><cc:Work
         rdf:about=""><dc:format>image/svg+xml</dc:format><dc:type
           rdf:resource="http://purl.org/dc/dcmitype/StillImage" /><dc:title></dc:title></cc:Work></rdf:RDF></metadata><defs
     id="defs3425" /><sodipodi:namedview
     id="namedview3406"
     inkscape:window-height="798"
     inkscape:pageopacity="0"
     inkscape:window-x="0"
     inkscape:window-maximized="0"
     inkscape:window-y="0"
     inkscape:current-layer="Layer_1"
     inkscape:window-width="1437"
     inkscape:pageshadow="2"
     guidetolerance="10"
     pagecolor="#ffffff"
     inkscape:cx="51"
     gridtolerance="10"
     borderopacity="1"
     showgrid="false"
     objecttolerance="10"
     inkscape:zoom="9.5980392"
     inkscape:cy="9"
     bordercolor="#666666" /><rect
     id="rect3402"
     y="1.671"
     fill="none"
     width="103.637"
     height="14.658" /><g
     enable-background="new    "
     id="g3403"
     style="fill:#ffffff"><path
       d="M8.969,9.661c0,1.684-1.481,3.029-3.305,3.029H1.201V2.191h4.342c1.811,0,3.157,1.154,3.157,2.699   c0,0.902-0.444,1.744-1.184,2.263C8.443,7.64,8.969,8.551,8.969,9.661z M5.326,4.126H3.433v2.239h1.893   c0.716,0,1.17-0.464,1.17-1.12C6.496,4.587,6.039,4.126,5.326,4.126z M5.45,10.605c0.748,0,1.24-0.493,1.24-1.184   c0-0.675-0.492-1.171-1.24-1.171H3.433v2.354H5.45L5.45,10.605z"
       id="path3405"
       style="fill:#ffffff" /><path
       d="M10.211,7.44c0-3.117,2.398-5.479,5.603-5.479c3.192,0,5.579,2.349,5.579,5.479s-2.386,5.479-5.579,5.479   C12.61,12.92,10.211,10.558,10.211,7.44z M19.091,7.44c0-1.904-1.406-3.335-3.277-3.335c-1.871,0-3.301,1.445-3.301,3.335   c0,1.891,1.431,3.336,3.301,3.336C17.686,10.776,19.091,9.346,19.091,7.44z"
       id="path3407"
       style="fill:#ffffff" /><path
       d="M23.068,8.739V2.19h2.274v6.443c0,1.312,0.855,2.143,2.064,2.143c1.207,0,2.062-0.831,2.062-2.143V2.19h2.274v6.549   c0,2.461-1.856,4.181-4.336,4.181C24.924,12.92,23.068,11.2,23.068,8.739z"
       id="path3409"
       style="fill:#ffffff" /><path
       d="M40.337,10.582v2.108h-6.301V2.19h2.272v8.392H40.337z"
       id="path3411"
       style="fill:#ffffff" /><path
       d="M51.162,7.429c0,3.045-2.247,5.262-5.325,5.262h-3.972V2.19h3.972C48.927,2.19,51.162,4.396,51.162,7.429z M48.836,7.429   c0-1.848-1.252-3.13-3.056-3.13h-1.643v6.283h1.643C47.584,10.582,48.836,9.264,48.836,7.429z"
       id="path3413"
       style="fill:#ffffff" /><path
       d="M59.449,10.577v2.113H52.98V2.19h6.304v2.099h-4.032v2.074h3.643V8.42h-3.643v2.157H59.449z"
       id="path3415"
       style="fill:#ffffff" /><path
       d="M65.094,9.106h-1.457v3.584h-2.271V2.19h4.238c2.103,0,3.67,1.448,3.67,3.474c0,1.373-0.752,2.496-1.913,3.057l2.323,3.97   h-2.538L65.094,9.106z M63.637,7.009h1.818c0.95,0,1.518-0.571,1.518-1.359c0-0.786-0.567-1.36-1.518-1.36h-1.818V7.009z"
       id="path3417"
       style="fill:#ffffff" /><path
       d="M79.049,9.661c0,1.684-1.48,3.029-3.305,3.029H71.28V2.191h4.342c1.811,0,3.157,1.154,3.157,2.699   c0,0.902-0.444,1.744-1.184,2.263C78.523,7.64,79.049,8.551,79.049,9.661z M75.406,4.126h-1.894v2.239h1.894   c0.715,0,1.17-0.464,1.17-1.12C76.576,4.587,76.119,4.126,75.406,4.126z M76.77,9.422c0-0.675-0.492-1.171-1.24-1.171h-2.017v2.354   h2.017C76.277,10.605,76.77,10.112,76.77,9.422z"
       id="path3419"
       style="fill:#ffffff" /><path
       d="M80.291,7.44c0-3.117,2.398-5.479,5.604-5.479c3.191,0,5.578,2.349,5.578,5.479s-2.387,5.479-5.578,5.479   C82.689,12.92,80.291,10.558,80.291,7.44z M89.171,7.44c0-1.904-1.405-3.335-3.276-3.335s-3.302,1.445-3.302,3.335   c0,1.891,1.431,3.336,3.302,3.336S89.171,9.346,89.171,7.44z"
       id="path3421"
       style="fill:#ffffff" /><path
       d="M98.326,12.69l-2.072-3.606l-2.099,3.606h-2.553l3.265-5.511L91.811,2.19h2.551l1.875,3.238l1.891-3.238h2.488   l-3.014,5.073l3.275,5.427H98.326z"
       id="path3423"
       style="fill:#ffffff" /></g></svg>