<?xml version="1.0" encoding="utf-8"?>
<!-- Generator: Adobe Illustrator 16.0.0, SVG Export Plug-In . SVG Version: 6.00 Build 0)  -->
<!DOCTYPE svg PUBLIC "-//W3C//DTD SVG 1.1//EN" "http://www.w3.org/Graphics/SVG/1.1/DTD/svg11.dtd">
<svg version="1.1" id="Layer_1" xmlns="http://www.w3.org/2000/svg" xmlns:xlink="http://www.w3.org/1999/xlink" x="0px" y="0px"
	 width="300px" height="300px" viewBox="0 0 300 300" enable-background="new 0 0 300 300" xml:space="preserve">
<circle fill="#040303" cx="150" cy="150" r="149.274"/>
<path fill="#FFFFFF" d="M127.463,199.015c-2.585-1.73-4.509-4.324-5.417-7.301l-0.291-0.952l-0.989,0.094
	c-3.145,0.298-6.194-0.473-8.817-2.23c-5.651-3.785-7.626-11.234-4.595-17.33l0.601-1.207l-29.766-11.22l-1.984-1.329
	c-22.219-14.879-28.19-45.063-13.309-67.284c14.879-22.219,45.062-28.191,67.281-13.312l1.744,1.167l22.464,22.75l0.866-0.889
	c4.575-4.695,11.843-5.457,17.283-1.814c2.582,1.729,4.506,4.324,5.417,7.306l0.29,0.951l0.991-0.094
	c3.103-0.293,6.234,0.497,8.816,2.226c5.441,3.644,7.507,10.659,4.91,16.677l-0.493,1.14l29.587,12.107l1.742,1.166
	c22.219,14.88,28.191,45.062,13.312,67.281c-14.882,22.221-45.065,28.194-67.284,13.314l-1.983-1.328l-21.709-23.25l-0.887,1.013
	C140.759,201.791,133.115,202.801,127.463,199.015z M183.309,115.623c-2.327-1.559-5.487-0.934-7.046,1.394l-45.458,67.882
	c-1.558,2.325-0.932,5.483,1.395,7.042c2.326,1.558,5.487,0.934,7.043-1.391l45.459-67.881
	C186.261,120.342,185.635,117.181,183.309,115.623z M167.795,105.233c-2.326-1.558-5.485-0.931-7.044,1.396l-45.459,67.882
	c-1.557,2.326-0.932,5.484,1.394,7.042c2.329,1.559,5.491,0.937,7.048-1.389l45.459-67.882
	C170.751,109.955,170.124,106.793,167.795,105.233z M150.961,188.357l22.427,24.021l1.17,0.782
	c18.321,12.27,43.208,7.346,55.478-10.976c12.268-18.32,7.342-43.204-10.978-55.473l-1.024-0.686l-30.394-12.438l-4.512,6.735
	l31.154,12.746l0.358,0.24c14.683,9.833,18.629,29.777,8.798,44.458c-9.834,14.683-29.778,18.628-44.461,8.796l-0.404-0.271
	l-23.075-24.708L150.961,188.357z M125.439,84.018c-18.321-12.269-43.205-7.345-55.472,10.974
	c-12.27,18.321-7.348,43.207,10.972,55.476l1.17,0.782l30.75,11.591l4.536-6.773l-31.629-11.926l-0.408-0.273
	c-14.682-9.833-18.63-29.777-8.797-44.461c9.832-14.681,29.777-18.626,44.461-8.793l0.361,0.242l23.644,23.951l4.51-6.735
	l-23.071-23.367L125.439,84.018z M160.362,174.319l23.744,25.431l0.133,0.083c10.68,6.75,25.089,3.696,32.121-6.805
	c7.057-10.537,4.363-25.042-6.003-32.335l-0.113-0.077l-31.95-13.072l-4.511,6.733l32.613,13.342l0.518,0.44
	c6.036,5.135,7.262,13.972,2.854,20.554c-4.341,6.482-12.885,8.761-19.877,5.302l-0.688-0.344l-24.306-26.025L160.362,174.319z
	 M115.825,97.387c-10.693-6.809-25.131-3.777-32.188,6.759c-7.032,10.501-4.367,24.988,5.94,32.294l0.128,0.092l32.555,12.271
	l4.536-6.773l-33.317-12.563l-0.586-0.511c-5.854-5.14-6.997-13.907-2.656-20.389c4.408-6.583,13.046-8.814,20.089-5.19l0.602,0.31
	l24.754,25.075l4.509-6.733L115.94,97.462L115.825,97.387z M177.249,164.893l-1.352,1.961l18.418,19.716l0.297,0.098
	c3,0.979,6.322-0.167,8.077-2.789c1.821-2.718,1.555-6.305-0.65-8.72l-0.185-0.202L177.249,164.893z M105.615,110.585
	c-3.07-1.118-6.486,0-8.305,2.716c-1.758,2.625-1.555,6.136,0.496,8.538l0.205,0.238l25.242,9.521l1.296-1.996l-18.675-18.922
	L105.615,110.585z"/>
</svg>
