<?xml version="1.0" encoding="utf-8"?>
<!-- Generator: Adobe Illustrator 16.0.0, SVG Export Plug-In . SVG Version: 6.00 Build 0)  -->
<!DOCTYPE svg PUBLIC "-//W3C//DTD SVG 1.1//EN" "http://www.w3.org/Graphics/SVG/1.1/DTD/svg11.dtd">
<svg version="1.1" id="Layer_1" xmlns="http://www.w3.org/2000/svg" xmlns:xlink="http://www.w3.org/1999/xlink" x="0px" y="0px"
	 width="300px" height="300px" viewBox="0 0 300 300" enable-background="new 0 0 300 300" xml:space="preserve">
<circle fill="#040303" cx="1369.248" cy="336.166" r="214.389"/>
<g>
	<path fill="#FFFFFF" d="M1257.027,303.129c-3.744,0-6.791-3.046-6.791-6.79s3.047-6.79,6.791-6.79h143.919
		c16.229,0,29.433-11.887,29.433-26.497c0-14.858-12.929-26.497-29.433-26.497c-16.23,0-29.435,11.887-29.435,26.497
		c0,3.744-3.046,6.79-6.789,6.79c-3.745,0-6.792-3.046-6.792-6.79c0-21.829,19.077-39.588,42.525-39.588
		c23.449,0,42.526,17.759,42.526,39.588c0,22.099-18.857,40.077-42.036,40.077H1257.027z"/>
	<path fill="#FFFFFF" d="M1400.946,447.536c-3.744,0-6.79-3.046-6.79-6.789c0-3.744,3.046-6.791,6.79-6.791
		c16.229,0,29.433-11.886,29.433-26.496c0-14.858-12.929-26.498-29.433-26.498h-143.919c-3.744,0-6.791-3.047-6.791-6.791
		c0-3.743,3.047-6.788,6.791-6.788h143.919c23.448,0,42.524,17.759,42.524,39.587
		C1443.471,428.959,1423.997,447.536,1400.946,447.536z"/>
	<path fill="#FFFFFF" d="M1257.027,343.76c-3.744,0-6.791-3.047-6.791-6.791s3.047-6.791,6.791-6.791h190.912
		c15.15,0,27.477-10.129,27.477-22.58c0-3.744,3.046-6.791,6.789-6.791c3.744,0,6.791,3.047,6.791,6.791
		c0,20.277-18.034,36.162-41.057,36.162H1257.027z"/>
</g>
<circle fill="#040303" cx="1925.72" cy="336.166" r="214.389"/>
<g>
	<path fill="#FFFFFF" d="M2038.398,388.343c-30.29-31.484-58.801-67.331-71.122-86.142c-7.639-11.667-16.53-22.104-27.926-22.105
		c-6.974,0-14.89,3.91-24.034,13.841c0,0-11.173,7.232-24.637,7.232c-14.013,0-30.494-7.883-39.464-39.858
		c4.559-23.708-3.008-39.649-13.907-39.649c-2.114,0-4.354,0.599-6.651,1.858c-7.833,4.286-13.876,17.704-3.06,25.877
		c4.188,3.164,5.162,8.745,5.14,13.384c-0.442,0.436-0.885,0.878-1.334,1.38c-10.9,12.199-34.284,30.373-34.284,64.99
		c0,14.283,3.496,36.466,57.866,36.466c13.455,0.418,31.367,4.321,57.314,16.968c60.544,29.517,63.621,46.365,134.147,58.732
		C2046.448,441.315,2068.689,419.831,2038.398,388.343z M1890.68,310.49c15.762,0,28.321-7.838,29.702-8.73l0.989-0.641l0.803-0.869
		c6.524-7.089,12.466-10.833,17.177-10.833c2.038,0,4.071,0.761,6.058,1.999l-19.349,18.875c-5.481,5.285-5.643,14.012-0.358,19.496
		c5.28,5.481,14.006,5.644,19.494,0.356l17.919-17.479c14.044,20.226,40.552,53.024,68.57,82.142
		c2.717,2.825,4.864,5.499,6.646,8.059l-0.181-0.054c-9.319,10.095-49.727-19.931-82.441-38.663
		c-39.944-22.872-88.427-16.483-88.427-16.483c-9.356-2.242-30.242-69.384-31.749-74.253c0.989-1.034,1.935-2.048,2.821-3.04
		c1.996-2.231,3.661-3.266,4.739-3.549C1854.135,302.773,1874.901,310.49,1890.68,310.49z M1831.074,237.998
		c0.188-2.544,2.248-5.314,4.058-6.305c0.84-0.46,1.612-0.711,2.177-0.711c0.69,0,1.45,0.536,2.263,1.596
		c3.013,3.928,4.769,12.646,2.966,24.383c-0.303,0.002-0.604,0.01-0.899,0.021c-0.856-5.396-3.158-11.048-8.421-15.023
		C1831.186,240.426,1830.994,239.098,1831.074,237.998z"/>
	<path fill="#231F20" d="M1823.073,288.934c0,0-18.117,25.624,3.795,50.77c10.806,10.024,17.563,8.304,17.563,8.304
		S1825.132,312.09,1823.073,288.934z"/>
</g>
<circle fill="#040303" cx="150" cy="150" r="148.818"/>
<g>
	<path fill="#FFFFFF" d="M228.216,186.218c-21.026-21.854-40.817-46.737-49.37-59.795c-5.302-8.099-11.475-15.343-19.385-15.345
		c-4.84,0-10.336,2.714-16.683,9.607c0,0-7.756,5.021-17.102,5.021c-9.728,0-21.168-5.472-27.394-27.667
		c3.164-16.457-2.088-27.523-9.654-27.523c-1.468,0-3.022,0.416-4.617,1.291c-5.438,2.975-9.632,12.289-2.124,17.962
		c2.907,2.196,3.583,6.07,3.568,9.29c-0.307,0.302-0.614,0.61-0.926,0.958c-7.566,8.468-23.798,21.084-23.798,45.113
		c0,9.915,2.427,25.313,40.167,25.313c9.34,0.29,21.774,3,39.785,11.778c42.027,20.489,44.163,32.185,93.119,40.769
		C233.804,222.99,249.243,208.076,228.216,186.218z M125.677,132.177c10.941,0,19.659-5.44,20.618-6.06l0.687-0.445l0.558-0.603
		c4.529-4.92,8.653-7.52,11.923-7.52c1.415,0,2.826,0.528,4.205,1.388l-13.431,13.102c-3.805,3.669-3.917,9.727-0.249,13.534
		c3.665,3.805,9.722,3.917,13.532,0.248l12.438-12.134c9.749,14.04,28.149,36.807,47.599,57.019
		c1.885,1.961,3.376,3.816,4.612,5.593l-0.125-0.037c-6.469,7.008-34.518-13.834-57.227-26.838
		c-27.728-15.877-61.381-11.442-61.381-11.442c-6.495-1.557-20.993-48.163-22.039-51.542c0.687-0.718,1.343-1.422,1.958-2.11
		c1.386-1.549,2.542-2.267,3.29-2.463C100.309,126.821,114.725,132.177,125.677,132.177z M84.302,81.857
		c0.13-1.767,1.561-3.689,2.816-4.377c0.583-0.319,1.119-0.493,1.511-0.493c0.479,0,1.007,0.372,1.571,1.107
		c2.091,2.727,3.31,8.778,2.059,16.925c-0.21,0.002-0.419,0.007-0.625,0.015c-0.594-3.745-2.192-7.669-5.845-10.429
		C84.379,83.542,84.246,82.62,84.302,81.857z"/>
	<path fill="#040303" d="M78.748,117.213c0,0-12.576,17.787,2.634,35.242c7.501,6.958,12.192,5.764,12.192,5.764
		S80.176,133.287,78.748,117.213z"/>
</g>
</svg>
