<?xml version="1.0" encoding="utf-8"?>
<!-- Generator: Adobe Illustrator 16.0.0, SVG Export Plug-In . SVG Version: 6.00 Build 0)  -->
<!DOCTYPE svg PUBLIC "-//W3C//DTD SVG 1.1//EN" "http://www.w3.org/Graphics/SVG/1.1/DTD/svg11.dtd">
<svg version="1.1" id="Layer_1" xmlns="http://www.w3.org/2000/svg" xmlns:xlink="http://www.w3.org/1999/xlink" x="0px" y="0px"
	 width="300px" height="300px" viewBox="0 0 300 300" enable-background="new 0 0 300 300" xml:space="preserve">
<circle fill="#040303" cx="150" cy="150" r="149.253"/>
<path fill="#FFFFFF" d="M199.188,60.567c-1.935,0-3.489,1.564-3.489,3.499v4.817h-30.737c-11.518,0-20.919,9.399-20.919,20.92v15.02
	h-0.967c-4.033,0-7.275,3.243-7.275,7.276v20.247c-13.648,2.468-24.565,8.889-29.27,17.125h-1.966c-4.033,0-7.277,3.254-7.277,7.285
	c0,4.033,3.244,7.277,7.277,7.277h87.35c4.032,0,7.274-3.244,7.274-7.277c0-4.031-3.242-7.285-7.274-7.285h-1.969
	c-4.703-8.236-15.622-14.657-29.268-17.125V112.1c0-4.033-3.243-7.276-7.277-7.276h-0.968v-15.02
	c0-7.016,5.515-12.529,12.529-12.529H195.7v4.819c0,1.933,1.556,3.498,3.489,3.498V60.567z"/>
<g transform="matrix(0.14000982,0,0,0.14000982,3651.4265,-741.56658)">
	<path fill="#FFFFFF" d="M-25423.875,6836.465c-0.697,0-1.398,0.617-1.475,1.335c-0.66,7.244-9.023,16.866-17.369,27.22
		c-8.312,10.33-16.609,21.587-16.16,33.357c0.041,19.062,15.578,34.596,34.996,34.596c19.422,0,34.967-15.533,35.004-34.596
		c0.439-11.77-7.844-23.028-16.168-33.357c-8.316-10.354-16.711-19.977-17.377-27.22c-0.07-0.718-0.768-1.335-1.459-1.335
		H-25423.875z"/>
	<path fill="#FFFFFF" d="M-25289.572,6836.465c-0.684,0-1.385,0.617-1.465,1.335c-0.662,7.244-9.043,16.866-17.375,27.22
		c-8.32,10.33-16.613,21.587-16.156,33.357c0.031,19.062,15.57,34.596,34.996,34.596c19.428,0,34.969-15.533,35-34.596
		c0.436-11.77-7.836-23.028-16.158-33.357c-8.342-10.354-16.719-19.977-17.385-27.22c-0.076-0.718-0.773-1.335-1.467-1.335
		H-25289.572z"/>
	<path fill="#FFFFFF" d="M-25155.26,6836.465c-0.693,0-1.391,0.617-1.471,1.335c-0.67,7.244-9.043,16.866-17.383,27.22
		c-8.32,10.33-16.6,21.587-16.154,33.357c0.039,19.062,15.576,34.596,34.998,34.596c19.436,0,34.969-15.533,34.996-34.596
		c0.457-11.77-7.836-23.028-16.154-33.357c-8.334-10.354-16.719-19.977-17.381-27.22c-0.08-0.718-0.764-1.335-1.461-1.335H-25155.26
		z"/>
	<path fill="#FFFFFF" d="M-25020.953,6836.465c-0.693,0-1.393,0.617-1.461,1.335c-0.67,7.244-9.055,16.866-17.393,27.22
		c-8.311,10.33-16.607,21.587-16.143,33.357c0.033,19.062,15.561,34.596,34.996,34.596c19.41,0,34.973-15.533,35-34.596
		c0.436-11.77-7.848-23.028-16.16-33.357c-8.332-10.354-16.713-19.977-17.387-27.22c-0.076-0.718-0.766-1.335-1.463-1.335
		H-25020.953z"/>
	<path fill="#FFFFFF" d="M-24886.646,6836.465c-0.695,0-1.393,0.617-1.463,1.335c-0.668,7.244-9.057,16.866-17.395,27.22
		c-8.311,10.33-16.594,21.587-16.15,33.357c0.045,19.062,15.582,34.596,35.008,34.596c19.41,0,34.957-15.533,34.975-34.596
		c0.471-11.77-7.818-23.028-16.146-33.357c-8.314-10.354-16.709-19.977-17.375-27.22
		C-24885.266,6837.083-24885.967,6836.465-24886.646,6836.465L-24886.646,6836.465z"/>
	<path fill="#FFFFFF" d="M-24752.344,6836.465c-0.684,0-1.383,0.617-1.455,1.335c-0.674,7.244-9.057,16.866-17.393,27.22
		c-8.316,10.33-16.6,21.587-16.154,33.357c0.029,19.062,15.564,34.596,35.002,34.596c19.432,0,34.953-15.533,34.988-34.596
		c0.443-11.77-7.822-23.028-16.164-33.357c-8.324-10.354-16.693-19.977-17.363-27.22c-0.066-0.718-0.768-1.335-1.477-1.335
		H-24752.344z"/>
	<path fill="#FFFFFF" d="M-24618.031,6836.465c-0.688,0-1.412,0.617-1.486,1.335c-0.654,7.244-9.018,16.866-17.363,27.22
		c-8.301,10.33-16.598,21.587-16.154,33.357c0.031,19.062,15.572,34.596,34.979,34.596c19.443,0,34.986-15.533,35.012-34.596
		c0.443-11.77-7.85-23.028-16.15-33.357c-8.342-10.354-16.73-19.977-17.396-27.22c-0.076-0.718-0.768-1.335-1.465-1.335H-24618.031z
		"/>
</g>
<g transform="matrix(0.14000982,0,0,0.14000982,3656.4469,-741.56658)">
	<path fill="#FFFFFF" d="M-25392.584,6680.502c-0.691,0-1.389,0.604-1.465,1.329c-0.664,7.25-9.041,16.879-17.369,27.216
		c-8.334,10.33-16.609,21.581-16.17,33.361c0.037,19.062,15.582,34.585,35.004,34.585c19.414,0,34.969-15.523,34.988-34.585
		c0.457-11.781-7.824-23.031-16.143-33.361c-8.336-10.337-16.723-19.966-17.385-27.216
		C-25391.193,6681.105-25391.891,6680.502-25392.584,6680.502L-25392.584,6680.502z"/>
	<path fill="#FFFFFF" d="M-25258.275,6680.502c-0.684,0-1.381,0.604-1.461,1.329c-0.68,7.25-9.053,16.879-17.385,27.216
		c-8.318,10.33-16.607,21.581-16.154,33.361c0.039,19.062,15.574,34.585,35,34.585c19.422,0,34.965-15.523,35.004-34.585
		c0.436-11.781-7.85-23.031-16.172-33.361c-8.316-10.337-16.705-19.966-17.371-27.216c-0.076-0.726-0.773-1.329-1.471-1.329
		H-25258.275z"/>
	<path fill="#FFFFFF" d="M-25123.969,6680.502c-0.697,0-1.393,0.604-1.461,1.329c-0.67,7.25-9.047,16.879-17.383,27.216
		c-8.328,10.33-16.617,21.581-16.152,33.361c0.037,19.062,15.57,34.585,34.996,34.585s34.969-15.523,34.986-34.585
		c0.461-11.781-7.822-23.031-16.145-33.361c-8.334-10.337-16.715-19.966-17.385-27.216
		C-25122.592,6681.105-25123.279,6680.502-25123.969,6680.502L-25123.969,6680.502z"/>
	<path fill="#FFFFFF" d="M-24989.652,6680.502c-0.693,0-1.381,0.604-1.479,1.329c-0.674,7.25-9.037,16.879-17.375,27.216
		c-8.314,10.33-16.598,21.581-16.15,33.361c0.018,19.062,15.564,34.585,34.982,34.585c19.443,0,34.98-15.523,35-34.585
		c0.447-11.781-7.836-23.031-16.15-33.361c-8.33-10.337-16.723-19.966-17.395-27.216c-0.066-0.726-0.764-1.329-1.455-1.329
		H-24989.652z"/>
	<path fill="#FFFFFF" d="M-24855.359,6680.502c-0.691,0-1.393,0.604-1.463,1.329c-0.666,7.25-9.029,16.879-17.363,27.216
		c-8.338,10.33-16.625,21.581-16.16,33.361c0.02,19.062,15.564,34.585,34.986,34.585c19.418,0,34.979-15.523,35-34.585
		c0.453-11.781-7.84-23.031-16.154-33.361c-8.336-10.337-16.719-19.966-17.396-27.216
		C-24853.979,6681.105-24854.674,6680.502-24855.359,6680.502L-24855.359,6680.502z"/>
	<path fill="#FFFFFF" d="M-24721.055,6680.502c-0.684,0-1.385,0.604-1.453,1.329c-0.674,7.25-9.064,16.879-17.393,27.216
		c-8.307,10.33-16.598,21.581-16.154,33.361c0.043,19.062,15.582,34.585,35,34.585c19.426,0,34.967-15.523,35.004-34.585
		c0.451-11.781-7.836-23.031-16.15-33.361c-8.332-10.337-16.729-19.966-17.385-27.216
		C-24719.67,6681.105-24720.367,6680.502-24721.055,6680.502L-24721.055,6680.502z"/>
</g>
<g transform="matrix(0.14000982,0,0,0.14000982,3661.4673,-741.56658)">
	<path fill="#FFFFFF" d="M-25361.285,6524.518c-0.684,0-1.385,0.614-1.451,1.364c-0.676,7.229-9.057,16.852-17.389,27.206
		c-8.316,10.32-16.613,21.574-16.164,33.351c0.039,19.077,15.578,34.585,35,34.585c19.432,0,34.973-15.509,35.004-34.585
		c0.436-11.777-7.836-23.031-16.15-33.351c-8.35-10.354-16.713-19.976-17.393-27.206c-0.066-0.75-0.764-1.364-1.467-1.364
		H-25361.285z"/>
	<path fill="#FFFFFF" d="M-25226.973,6524.518c-0.693,0-1.391,0.614-1.465,1.364c-0.676,7.229-9.049,16.852-17.385,27.206
		c-8.324,10.32-16.604,21.574-16.158,33.351c0.039,19.077,15.576,34.585,34.998,34.585c19.436,0,34.969-15.509,34.996-34.585
		c0.457-11.777-7.836-23.031-16.154-33.351c-8.334-10.354-16.719-19.976-17.381-27.206c-0.08-0.75-0.764-1.364-1.461-1.364
		H-25226.973z"/>
	<path fill="#FFFFFF" d="M-25092.666,6524.518c-0.693,0-1.381,0.614-1.461,1.364c-0.67,7.229-9.055,16.852-17.385,27.206
		c-8.318,10.32-16.615,21.574-16.15,33.351c0.033,19.077,15.561,34.585,34.996,34.585c19.412,0,34.947-15.509,35-34.585
		c0.436-11.777-7.846-23.031-16.16-33.351c-8.332-10.354-16.713-19.976-17.385-27.206c-0.066-0.75-0.768-1.364-1.465-1.364
		H-25092.666z"/>
	<path fill="#FFFFFF" d="M-24958.359,6524.518c-0.695,0-1.393,0.614-1.461,1.364c-0.67,7.229-9.059,16.852-17.396,27.206
		c-8.311,10.32-16.594,21.574-16.15,33.351c0.045,19.077,15.582,34.585,35.008,34.585c19.41,0,34.957-15.509,34.975-34.585
		c0.471-11.777-7.818-23.031-16.146-33.351c-8.314-10.354-16.709-19.976-17.375-27.206
		C-24956.979,6525.132-24957.68,6524.518-24958.359,6524.518L-24958.359,6524.518z"/>
	<path fill="#FFFFFF" d="M-24824.057,6524.518c-0.684,0-1.381,0.614-1.455,1.364c-0.674,7.229-9.057,16.852-17.393,27.206
		c-8.316,10.32-16.6,21.574-16.154,33.351c0.029,19.077,15.566,34.585,35.002,34.585c19.432,0,34.965-15.509,34.988-34.585
		c0.443-11.777-7.822-23.031-16.156-33.351c-8.332-10.354-16.701-19.976-17.361-27.206c-0.076-0.75-0.777-1.364-1.486-1.364
		H-24824.057z"/>
</g>
</svg>
