<?xml version="1.0" encoding="utf-8"?>
<!-- Generator: Adobe Illustrator 16.0.0, SVG Export Plug-In . SVG Version: 6.00 Build 0)  -->
<!DOCTYPE svg PUBLIC "-//W3C//DTD SVG 1.1//EN" "http://www.w3.org/Graphics/SVG/1.1/DTD/svg11.dtd">
<svg version="1.1" id="Layer_1" xmlns="http://www.w3.org/2000/svg" xmlns:xlink="http://www.w3.org/1999/xlink" x="0px" y="0px"
	 width="300px" height="300px" viewBox="0 0 300 300" enable-background="new 0 0 300 300" xml:space="preserve">
<circle fill="#040303" cx="150" cy="149.782" r="149.349"/>
<path fill="#FFFFFF" d="M107.571,227.73c-0.249,0-0.498-0.022-0.743-0.064c-17.984-1.05-32.291-15.356-33.343-33.34
	c-0.043-0.249-0.066-0.5-0.066-0.749V95.824c0-0.247,0.022-0.496,0.065-0.745c1.097-18.742,16.646-33.407,35.446-33.407
	c16.39,0,30.704,11.345,34.519,27.153h83.6c6.854,0,12.428,5.576,12.428,12.429v114.047c0,6.853-5.575,12.429-12.428,12.429H107.571
	z M108.93,165.275c-14.857,0-26.944,12.088-26.944,26.945c0,14.857,12.086,26.944,26.944,26.944h118.119
	c2.13,0,3.863-1.734,3.863-3.863V101.255c0-2.13-1.733-3.864-3.863-3.864h-82.611v92.798c0.729,13.66-9.763,25.62-23.409,26.674
	l-0.06,0.004h-1.586c-10.975-0.011-20.235-8.59-21.086-19.53c-0.7-9.742,6.645-18.301,16.371-19.089
	c0.382-0.028,0.746-0.041,1.108-0.041c7.819,0,14.442,6.111,15.08,13.912c0.176,2.37-1.599,4.433-3.956,4.611
	c-0.108,0.008-0.217,0.011-0.324,0.011c-2.231,0-4.11-1.745-4.275-3.971c-0.284-3.363-3.161-6.009-6.547-6.009
	c-0.155,0-0.312,0.005-0.47,0.016c-5.016,0.417-8.831,4.857-8.484,9.897c0.519,6.506,6.043,11.614,12.578,11.614
	c0.315,0,0.631-0.012,0.949-0.036c8.402-0.609,15.07-7.375,15.564-15.76c-0.01-0.091-0.016-0.18-0.016-0.271
	C135.874,177.363,123.787,165.275,108.93,165.275z M108.928,70.238c-14.857,0-26.944,12.087-26.944,26.944v71.917
	c6.705-7.831,16.471-12.388,26.944-12.388c10.474,0,20.239,4.556,26.944,12.386V97.182
	C135.873,82.325,123.786,70.238,108.928,70.238z"/>
<g>
	<path fill="#FFFFFF" d="M155.104,112.126c-0.72-0.01-1.409-0.292-1.928-0.788c-0.239-0.263-0.434-0.567-0.571-0.896
		c-0.14-0.326-0.213-0.677-0.217-1.032c-0.004-0.721,0.279-1.415,0.788-1.928c1.056-1.064,2.776-1.072,3.84-0.015
		c0.517,0.513,0.807,1.214,0.802,1.943c-0.004,0.354-0.076,0.706-0.216,1.032c-0.138,0.329-0.331,0.633-0.57,0.896
		C156.511,111.835,155.823,112.116,155.104,112.126z"/>
	<path fill="#FFFFFF" d="M155.104,122.987c-1.5,0-2.716-1.215-2.716-2.715c0.004-0.354,0.078-0.706,0.218-1.031
		c0.124-0.336,0.318-0.642,0.57-0.897c1.056-1.064,2.776-1.071,3.84-0.015c0.006,0.004,0.011,0.01,0.017,0.015
		c0.247,0.259,0.44,0.562,0.57,0.897c0.14,0.326,0.212,0.677,0.216,1.031c0.015,0.181,0.015,0.362,0,0.542
		c-0.028,0.17-0.083,0.335-0.162,0.49c-0.054,0.167-0.137,0.322-0.245,0.461l-0.326,0.435
		C156.553,122.709,155.842,122.991,155.104,122.987z"/>
	<path fill="#FFFFFF" d="M163.251,117.557c-1.5,0-2.717-1.216-2.717-2.715c0.004-0.354,0.078-0.705,0.218-1.031
		c0.579-1.384,2.17-2.035,3.554-1.455c0.314,0.131,0.601,0.321,0.845,0.559c0.263,0.25,0.467,0.557,0.598,0.896
		c0.57,1.387-0.093,2.973-1.48,3.543C163.946,117.486,163.6,117.555,163.251,117.557z"/>
	<path fill="#FFFFFF" d="M163.251,128.418c-1.5,0-2.717-1.216-2.717-2.715c-0.003-0.722,0.28-1.415,0.789-1.928
		c1.059-1.053,2.77-1.053,3.828,0c0.519,0.508,0.812,1.202,0.815,1.928c-0.003,0.726-0.296,1.42-0.815,1.928
		C164.645,128.133,163.963,128.416,163.251,128.418z"/>
	<path fill="#FFFFFF" d="M163.251,139.279c-1.5,0-2.717-1.216-2.717-2.715c-0.003-0.722,0.28-1.416,0.789-1.928
		c1.059-1.052,2.77-1.052,3.828,0c0.519,0.507,0.812,1.202,0.815,1.928c-0.003,0.726-0.296,1.42-0.815,1.928
		C164.645,138.995,163.963,139.277,163.251,139.279z"/>
	<path fill="#FFFFFF" d="M163.251,150.142c-1.5,0-2.717-1.217-2.717-2.716c0.004-0.354,0.078-0.704,0.218-1.032
		c0.138-0.328,0.33-0.632,0.57-0.895c1.059-1.054,2.77-1.054,3.828,0c1.065,1.056,1.072,2.775,0.016,3.84
		c-0.005,0.005-0.011,0.01-0.016,0.016C164.645,149.855,163.963,150.138,163.251,150.142z"/>
	<path fill="#FFFFFF" d="M163.251,161.003c-1.5,0-2.717-1.216-2.717-2.716c-0.003-0.721,0.28-1.415,0.789-1.928
		c0.643-0.636,1.557-0.91,2.445-0.733c0.178,0.025,0.353,0.08,0.514,0.163c0.167,0.055,0.324,0.137,0.462,0.245
		c0.152,0.087,0.29,0.197,0.407,0.326c0.519,0.508,0.812,1.202,0.815,1.928c-0.003,0.726-0.296,1.42-0.815,1.928
		C164.645,160.718,163.963,161,163.251,161.003z"/>
	<path fill="#FFFFFF" d="M163.251,171.865c-1.5,0-2.717-1.216-2.717-2.716c-0.003-0.722,0.28-1.415,0.789-1.927
		c0.643-0.636,1.557-0.911,2.445-0.733c0.178,0.026,0.353,0.081,0.514,0.163c0.167,0.054,0.324,0.138,0.462,0.246
		c0.152,0.085,0.29,0.195,0.407,0.325c0.519,0.507,0.812,1.202,0.815,1.927c-0.003,0.727-0.296,1.42-0.815,1.929
		C164.645,171.579,163.963,171.861,163.251,171.865z"/>
	<path fill="#FFFFFF" d="M163.251,182.726c-0.719-0.01-1.408-0.291-1.928-0.788c-0.248-0.257-0.441-0.562-0.57-0.896
		c-0.292-0.658-0.292-1.406,0-2.064c0.129-0.333,0.323-0.638,0.57-0.896c0.643-0.636,1.557-0.91,2.445-0.733
		c0.178,0.026,0.353,0.081,0.514,0.163c0.167,0.055,0.324,0.137,0.462,0.244c0.152,0.087,0.29,0.197,0.407,0.326
		c0.264,0.252,0.467,0.558,0.598,0.896c0.29,0.658,0.29,1.406,0,2.064c-0.131,0.339-0.335,0.645-0.598,0.896l-0.407,0.327
		c-0.139,0.108-0.295,0.189-0.462,0.243c-0.162,0.082-0.336,0.138-0.514,0.165L163.251,182.726z"/>
	<path fill="#FFFFFF" d="M163.251,193.589c-0.719-0.011-1.408-0.291-1.928-0.788c-0.24-0.265-0.433-0.567-0.57-0.897
		c-0.292-0.656-0.292-1.407,0-2.063c0.492-1.189,1.75-1.868,3.015-1.629c0.178,0.026,0.353,0.081,0.514,0.164
		c0.167,0.053,0.324,0.136,0.462,0.244l0.407,0.325c0.264,0.252,0.467,0.558,0.598,0.896c0.418,1.017,0.183,2.186-0.598,2.96
		l-0.407,0.326c-0.139,0.107-0.295,0.19-0.462,0.244c-0.162,0.082-0.336,0.137-0.514,0.163L163.251,193.589z"/>
	<path fill="#FFFFFF" d="M163.251,204.449c-0.719-0.01-1.408-0.291-1.928-0.787c-0.24-0.265-0.433-0.567-0.57-0.896
		c-0.292-0.657-0.292-1.406,0-2.063c0.138-0.329,0.33-0.633,0.57-0.897c0.643-0.635,1.557-0.91,2.445-0.732
		c0.178,0.026,0.353,0.08,0.514,0.163c0.167,0.054,0.324,0.137,0.462,0.244l0.407,0.326c1.065,1.057,1.072,2.775,0.016,3.84
		c-0.005,0.005-0.011,0.01-0.016,0.016l-0.407,0.325c-0.139,0.108-0.295,0.19-0.462,0.244c-0.162,0.083-0.336,0.138-0.514,0.165
		L163.251,204.449z"/>
	<path fill="#FFFFFF" d="M155.104,133.85c-0.72-0.01-1.409-0.291-1.928-0.788c-0.509-0.511-0.792-1.206-0.788-1.928
		c0.003-0.355,0.078-0.705,0.217-1.031c0.137-0.329,0.332-0.631,0.571-0.896c1.056-1.064,2.776-1.072,3.84-0.016
		c0.006,0.005,0.011,0.01,0.016,0.016c0.24,0.265,0.433,0.567,0.569,0.896c0.14,0.327,0.213,0.677,0.217,1.031
		C157.82,132.633,156.604,133.85,155.104,133.85z"/>
	<path fill="#FFFFFF" d="M155.104,144.71c-1.5-0.008-2.709-1.232-2.701-2.731c0.009-1.5,1.231-2.708,2.732-2.699
		c1.499,0.008,2.708,1.231,2.698,2.731c-0.003,0.718-0.291,1.406-0.802,1.912C156.511,144.42,155.823,144.7,155.104,144.71z"/>
	<path fill="#FFFFFF" d="M155.104,155.572c-0.72-0.01-1.409-0.291-1.928-0.787c-0.509-0.513-0.792-1.207-0.788-1.928
		c0.003-0.356,0.078-0.706,0.217-1.032c0.137-0.329,0.332-0.632,0.571-0.896c1.056-1.065,2.776-1.073,3.84-0.016
		c0.006,0.005,0.011,0.01,0.016,0.016c0.24,0.264,0.433,0.566,0.569,0.896c0.14,0.327,0.213,0.677,0.217,1.032
		C157.82,154.356,156.604,155.572,155.104,155.572z"/>
	<path fill="#FFFFFF" d="M155.104,166.434c-1.5-0.008-2.709-1.231-2.701-2.73c0.009-1.5,1.231-2.708,2.732-2.7
		c1.499,0.009,2.708,1.232,2.698,2.731c-0.003,0.718-0.291,1.407-0.802,1.912C156.511,166.144,155.823,166.423,155.104,166.434z"/>
	<path fill="#FFFFFF" d="M155.104,177.295c-1.5-0.009-2.709-1.232-2.701-2.73c0.009-1.5,1.231-2.708,2.732-2.699
		c1.499,0.007,2.708,1.231,2.698,2.73c-0.003,0.718-0.291,1.406-0.802,1.912C156.511,177.004,155.823,177.286,155.104,177.295z"/>
	<path fill="#FFFFFF" d="M155.104,188.156c-1.5,0-2.716-1.215-2.716-2.715c-0.004-0.722,0.279-1.415,0.788-1.927
		c1.065-1.056,2.785-1.05,3.84,0.015c1.056,1.065,1.05,2.784-0.015,3.84C156.495,187.871,155.814,188.152,155.104,188.156z"/>
	<path fill="#FFFFFF" d="M155.104,199.018c-1.5,0-2.716-1.215-2.716-2.715s1.217-2.714,2.716-2.714s2.714,1.215,2.714,2.714
		C157.82,197.803,156.604,199.018,155.104,199.018z"/>
	<path fill="#FFFFFF" d="M155.104,209.881c-1.5-0.01-2.709-1.232-2.701-2.731c0.009-1.5,1.231-2.708,2.732-2.7
		c1.499,0.007,2.708,1.231,2.698,2.731c-0.003,0.718-0.291,1.406-0.802,1.912C156.511,209.59,155.823,209.87,155.104,209.881z"/>
</g>
</svg>
